<?xml version="1.0" standalone="no"?>
<!DOCTYPE svg PUBLIC "-//W3C//DTD SVG 20010904//EN"
 "http://www.w3.org/TR/2001/REC-SVG-20010904/DTD/svg10.dtd">
<svg version="1.0" xmlns="http://www.w3.org/2000/svg"
 width="250.000000pt" height="250.000000pt" viewBox="0 0 250.000000 250.000000"
 preserveAspectRatio="xMidYMid meet">
<metadata>
Created by potrace 1.14, written by Peter Selinger 2001-2017
</metadata>
<g transform="translate(0.000000,250.000000) scale(0.100000,-0.100000)"
fill="#000000" stroke="none">
<path d="M970 1700 l0 -100 29 0 c16 0 31 -6 35 -15 3 -8 16 -15 30 -15 13 0
26 -7 30 -15 3 -8 16 -15 30 -15 13 0 26 -7 30 -15 3 -9 18 -15 36 -15 25 0
30 -4 30 -25 0 -22 -4 -25 -35 -25 -24 0 -35 -5 -35 -15 0 -10 -10 -15 -30
-15 -20 0 -30 -5 -30 -15 0 -10 -10 -15 -30 -15 -20 0 -30 -5 -30 -15 0 -10
-10 -15 -30 -15 l-30 0 0 -100 0 -100 78 0 c66 0 82 3 97 20 18 20 17 20 -43
20 l-62 0 0 35 0 35 90 0 90 0 0 -55 c0 -54 0 -55 30 -55 30 0 30 1 30 55 l0
55 90 0 90 0 0 -35 0 -35 -62 0 c-60 0 -61 0 -43 -20 15 -17 31 -20 97 -20
l78 0 0 100 0 100 -30 0 c-20 0 -30 5 -30 15 0 10 -10 15 -30 15 -20 0 -30 5
-30 15 0 10 -10 15 -30 15 -20 0 -30 5 -30 15 0 10 -11 15 -35 15 -31 0 -35 3
-35 25 0 21 5 25 30 25 18 0 33 6 36 15 4 8 17 15 30 15 14 0 27 7 30 15 4 8
17 15 30 15 14 0 27 7 30 15 4 9 19 15 35 15 l29 0 0 100 0 100 -84 0 c-62 0
-87 -4 -96 -15 -11 -13 -5 -15 49 -15 l61 0 0 -40 0 -40 -90 0 -90 0 0 55 c0
54 0 55 -30 55 -30 0 -30 -1 -30 -55 l0 -55 -90 0 -90 0 0 40 0 40 61 0 c54 0
60 2 49 15 -9 11 -34 15 -96 15 l-84 0 0 -100z m148 -46 c-16 -8 -28 -17 -28
-19 0 -5 84 -55 93 -55 4 0 7 20 7 45 l0 45 60 0 60 0 0 -45 c0 -25 3 -45 7
-45 9 0 93 50 93 55 0 2 -12 11 -27 19 -28 15 -28 15 25 16 78 0 71 -24 -25
-77 -64 -37 -84 -43 -133 -43 -49 0 -69 6 -133 43 -96 53 -103 77 -24 77 52
-1 52 -1 25 -16z m268 -276 c87 -50 95 -68 27 -67 -42 0 -45 2 -25 11 12 6 22
14 22 17 0 3 -23 18 -50 33 l-50 28 0 -45 0 -45 -60 0 -60 0 0 45 0 45 -50
-28 c-27 -15 -50 -30 -50 -33 0 -3 10 -11 23 -17 19 -9 16 -11 -25 -11 -68 -1
-61 17 25 67 64 37 79 42 136 42 56 0 72 -5 137 -42z"/>
<path d="M443 1000 c-13 -10 -23 -23 -23 -30 0 -19 -90 -224 -105 -239 -20
-20 -34 -11 -110 73 l-68 77 48 49 c27 27 62 56 79 64 l31 16 -60 0 c-37 0
-55 -4 -46 -9 20 -13 6 -42 -49 -96 l-50 -49 0 59 c0 63 6 78 30 88 8 3 -16 5
-55 5 -38 0 -63 -2 -55 -5 26 -10 30 -26 30 -143 0 -117 -4 -133 -30 -143 -8
-3 19 -6 60 -6 67 -1 72 1 50 12 -21 11 -25 21 -28 65 -2 28 1 52 5 52 4 0 33
-30 63 -65 l54 -65 86 1 c47 1 77 3 68 6 -22 5 -22 20 -3 67 15 35 17 36 69
36 52 0 55 -1 65 -31 14 -42 14 -66 -1 -72 -7 -3 48 -5 122 -6 90 0 128 3 113
9 -20 8 -23 16 -23 71 0 52 2 60 16 55 9 -3 17 -6 19 -6 2 0 25 -29 50 -65
l47 -65 81 1 c58 0 76 3 60 9 -22 9 -22 10 -7 55 l16 45 54 0 c49 0 55 -2 64
-25 22 -57 22 -73 3 -78 -10 -3 61 -5 158 -6 164 -1 178 0 203 20 37 29 37 89
0 118 l-26 20 21 27 c27 35 27 59 -4 89 -23 24 -30 25 -132 24 -75 0 -101 -3
-85 -9 21 -9 22 -14 22 -133 0 -135 -7 -155 -54 -143 -20 5 -32 28 -76 148
-30 79 -55 145 -57 147 -10 13 -45 -46 -88 -150 -54 -132 -66 -152 -88 -143
-8 3 -34 32 -56 64 l-41 58 30 30 c61 61 25 124 -79 136 -75 9 -148 -2 -126
-18 13 -9 15 -33 13 -141 l-3 -130 -26 -3 c-14 -2 -31 3 -37 10 -6 7 -31 69
-57 137 -59 160 -55 153 -82 131z m347 -20 c42 -42 17 -103 -48 -116 l-32 -6
0 71 0 71 30 0 c17 0 39 -9 50 -20z m620 0 c43 -43 18 -98 -48 -107 l-42 -6 0
60 c0 33 3 63 7 66 14 14 64 6 83 -13z m-951 -87 l21 -53 -46 0 c-33 0 -45 4
-41 13 29 73 40 97 42 95 2 -2 13 -27 24 -55z m610 10 c8 -21 16 -44 18 -50 4
-9 -8 -13 -40 -13 l-45 0 21 50 c11 28 24 50 27 50 3 0 12 -17 19 -37z m335
-57 c77 -32 45 -126 -42 -126 -36 0 -42 13 -42 86 0 51 1 54 25 54 14 0 41 -6
59 -14z"/>
<path d="M1668 1003 c-8 -10 -37 -70 -64 -133 -26 -63 -59 -125 -71 -137 l-22
-23 46 0 c41 0 45 2 29 13 -17 12 -17 15 -1 55 17 42 17 42 70 42 53 0 53 0
70 -42 16 -40 16 -43 -1 -55 -15 -11 5 -13 122 -13 118 0 135 2 114 13 -21 11
-25 21 -28 65 -2 28 1 52 6 52 4 0 32 -29 62 -65 l54 -65 120 1 c83 0 114 3
99 9 -20 8 -23 16 -23 70 l0 60 80 0 80 0 0 -60 c0 -54 -3 -62 -22 -70 -17 -6
-4 -9 47 -8 39 0 62 2 53 5 -13 3 -18 21 -23 79 -10 107 -2 184 20 200 16 12
10 14 -51 13 -51 0 -63 -3 -46 -9 19 -8 22 -16 22 -70 l0 -60 -80 0 -80 0 0
53 c0 55 6 71 30 80 8 3 -16 5 -55 6 -52 0 -64 -3 -47 -9 22 -9 23 -12 20
-142 l-3 -133 -39 0 c-36 0 -44 6 -109 78 l-71 78 49 49 c27 27 62 56 79 64
l31 16 -60 0 c-37 0 -55 -4 -46 -9 20 -13 6 -42 -49 -96 l-50 -49 0 59 c0 63
6 78 30 88 8 3 -16 5 -55 5 -38 0 -63 -2 -55 -5 8 -3 18 -11 22 -17 9 -13 11
-228 2 -250 -9 -24 -61 -20 -75 6 -6 12 -31 76 -56 142 -24 67 -48 124 -52
129 -4 4 -14 -1 -23 -10z m28 -160 c-2 -2 -22 -3 -44 -1 l-40 3 22 53 21 53
23 -52 c12 -28 21 -54 18 -56z"/>
</g>
</svg>
